<svg id="Layer_1" data-name="Layer 1" xmlns="http://www.w3.org/2000/svg"
     viewBox="0 0 1643.05 278.5">
    <defs>
        <style>
            .cls-1 {
            fill: #63a6d5;
            }

            .cls-2 {
            fill: #1c5c77;
            }

            .cls-3 {
            fill: #1c5b77;
            }

            .cls-4 {
            fill: #1d5c77;
            }

            .cls-5 {
            fill: #64a6d5;
            }

            .cls-6 {
            fill: #1f5d78;
            }

            .cls-7 {
            fill: #65a7d5;
            }

            .cls-8 {
            fill: #215f7a;
            }
        </style>
    </defs>
    <path class="cls-1"
          d="M629.51,181c-17.66,0-35.32.15-53-.09-4.69-.07-5.3,1.59-4.25,5.56,4.68,17.66,18,27.32,38.5,27.43,23.82.13,47.64.21,71.45,0,4.77,0,5.91,1.44,5.69,5.89-.35,7-.21,14,0,21,.06,2.85-.5,4.13-3.78,4.11-25-.13-50,.15-75-.18a82.43,82.43,0,0,1-30.21-5.87c-17.67-7.23-29.2-20.33-34.34-38.41-6.89-24.2-7-48.61,1.09-72.68,6.52-19.36,19.78-32.09,39.4-37.59,22.59-6.33,45.11-6.16,66.86,3.55,16.39,7.32,26.1,20.55,31.24,37.42,4.68,15.34,4.86,31.11,4.69,46.94,0,3.56-2.3,3-4.39,3Q656.5,181,629.51,181Zm-15.67-31v0c12.8,0,25.61,0,38.41,0,1.6,0,4.08.8,3.36-2.54-2-9.35-5.68-17.67-14-23.25-10.36-7-22-7.92-33.92-7-19.33,1.44-30.73,10.71-35.14,27.62-1,3.84-.58,5.39,3.87,5.3C588.89,149.84,601.36,150,613.84,150Z"/>
    <path class="cls-1"
          d="M354.06,168.76c-.49,9.58.8,22.59-.61,35.53-2.08,19.12-13.12,30.92-31.16,36-23.47,6.54-47,6.94-70-2.26-14.95-6-23.75-17.41-25.86-33.35-2-15.44,1.1-29.61,13.34-40.4,9.45-8.34,21.08-11.58,33.29-13.35,12.37-1.79,25,.1,37.27-2.92,9.38-2.32,12.83-6.57,12.77-16.08,0-6-3.14-10-8.46-11.61a85.48,85.48,0,0,0-49.64-.06c-4.29,1.25-7.58,4.44-8,9.31-.28,3.23-2,3.62-4.69,3.57-7.33-.11-14.67-.22-22,0-3.69.13-4.47-1.29-4.32-4.63.71-15.95,12.31-31.43,28.54-36.91a110.39,110.39,0,0,1,67.29-1.26c21.63,6.27,32,20.6,32.23,43.07C354.16,144.06,354.06,154.72,354.06,168.76Zm-31,7.68c-7.21,1.39-13.93,3.17-20.91,3.87-7.16.71-14.31.21-21.42.8a74.39,74.39,0,0,0-12.76,2.13c-8.11,2.12-11,5.94-11.15,13.67-.11,8.07,2.75,12.21,11,14.39a89.12,89.12,0,0,0,43.42.32c5.64-1.3,11.24-4,11.72-10.66C323.47,192.89,323,184.75,323,176.44Z"/>
    <path class="cls-2"
          d="M1426.9,164.77c.45,14.26-1.24,27.72-6.19,40.57-7.92,20.58-23.27,32.67-44.58,37.21a105.71,105.71,0,0,1-52.25-1.59c-20.23-5.89-33.66-19.15-39.84-39a120.83,120.83,0,0,1-.12-72.47c6.16-20.2,19.5-33.63,39.89-39.56,20.1-5.84,40.42-5.87,60.31.54,24.16,7.79,36.21,26.1,40.79,50.11A101.18,101.18,0,0,1,1426.9,164.77Zm-31,1.09a101.37,101.37,0,0,0-1-16.8c-2.67-18.43-12.11-28.22-30.36-31.24a72.38,72.38,0,0,0-24.35.14c-14.44,2.52-24.29,10.27-27.74,25a96.81,96.81,0,0,0,.07,45.44c3.12,12.93,11.45,20.68,24.26,23.68a69.91,69.91,0,0,0,33.59-.29c12.86-3.27,20.49-11.78,23.47-24.53A77.11,77.11,0,0,0,1396,165.86Z"/>
    <path class="cls-3"
          d="M1094.24,197.82c4.16,0,8.33,0,12.49,0,1.32,0,3-.14,3.08,1.71.58,9,7.23,11.3,14.28,12.73a88.15,88.15,0,0,0,40-.67c9.87-2.55,13.55-9.78,10.91-19.45-1.38-5.06-5.09-7-9.7-8.16-11.22-2.72-22.74-2.74-34.12-4-9.24-1-18.44-2.37-27.1-5.92-13-5.33-21.77-14.54-24.25-28.68s-2.07-28.22,7.23-40.38c7.11-9.3,17.11-14.05,28.28-16.24,22.68-4.44,45.25-5,67.05,4.18A40.5,40.5,0,0,1,1207,130.4c0,2.31-.94,2.77-3,2.75q-12.74-.09-25.48,0c-1.86,0-2.6-.57-2.87-2.44-1-7-6-10.17-12.13-11.57a91.34,91.34,0,0,0-42.49.16c-9.34,2.27-13.41,9.85-10.85,19.15a10.2,10.2,0,0,0,7.22,7.57c9.49,2.86,19.29,3.15,29,3.93,10.76.86,21.46,2.11,31.77,5.49,22.55,7.4,30.1,26.66,28.44,46.95-2.16,26.52-20.39,37.23-40.62,40.6-19.75,3.29-39.42,3.37-58.62-3.1-17.68-5.95-28.25-20.32-28.63-37.87-.06-3.07.46-4.59,4-4.3C1086.56,198.06,1090.41,197.82,1094.24,197.82Z"/>
    <path class="cls-4"
          d="M1598.46,199.82c0,13.65-.1,27.3.07,41,0,3.32-1,4.3-4.25,4.2-7.32-.22-14.66-.3-22,0-3.84.18-4.65-1-4.63-4.71q.24-37,0-73.91a99.34,99.34,0,0,0-2.07-21.28C1562,128.8,1553,120.7,1536,117.9a69.78,69.78,0,0,0-27.24.79c-14.78,3.38-23.16,12.82-25.81,27.54a127.2,127.2,0,0,0-1.93,22.3c0,23.8-.08,47.61.07,71.41,0,3.73-.64,5.29-4.81,5.08-7.31-.38-14.65-.23-22-.06-2.9.07-4.18-.56-4.13-3.8.53-30.12-1.21-60.28.87-90.34,1.51-21.75,8.82-41.25,28.35-53.87,9.82-6.35,20.81-9.38,32.32-10.41,16.53-1.48,33-1,48.52,5.55,20.27,8.52,30.93,24.76,35.58,45.56a121.66,121.66,0,0,1,2.62,26.72Q1598.46,182.1,1598.46,199.82Z"/>
    <path class="cls-4"
          d="M905.85,137.32c0-17.81.09-32.47-.07-47.11,0-3.22.76-4.37,4.13-4.26,7.32.24,14.67.31,22,0,3.83-.17,4.8,1.1,4.78,4.74q-.2,36.72,0,73.42c0,7.79.3,15.59,2.2,23.25,3.39,13.62,11.71,21.8,25.53,24.8a69.63,69.63,0,0,0,33-.6c14-3.7,21.14-13.55,23.53-27.34a151.37,151.37,0,0,0,1.83-25.33q.16-34.2,0-68.42c0-3.34.63-4.65,4.3-4.51,7.82.29,15.66.16,23.48,0,2.53,0,3.5.65,3.49,3.35-.08,27.8.24,55.61-.21,83.4a92.51,92.51,0,0,1-6.26,32.57c-9.41,23.82-27.91,35.34-52.44,38.63-14.5,1.94-28.94,1.44-43.05-2.47-25.26-7-38.84-24.67-44-49.57C904,172.78,906.71,153.4,905.85,137.32Z"/>
    <path class="cls-5"
          d="M441.91,198.63c4.95-12.51,9.53-24.06,14.09-35.62q14.55-36.87,29.07-73.76A4.46,4.46,0,0,1,489.93,86c8.49.15,17,.26,25.48,0,4.81-.15,3.14,2.36,2.28,4.54Q507.28,117,496.79,143.4q-19.6,49.6-39.14,99.25c-1.1,2.81-2.35,4.28-5.68,4.14-6.82-.28-13.66-.21-20.48,0-2.88.07-4.35-.77-5.47-3.64C413.86,212,401.5,181,389.22,149.9,381.33,130,373.53,110,365.56,90.09c-1.15-2.86-1.38-4.19,2.42-4.1,8.16.19,16.33.25,24.48,0,3.53-.12,5,1.4,6.17,4.39,9.3,23.84,18.72,47.63,28.09,71.44,4.51,11.45,9,22.91,13.47,34.36A19,19,0,0,0,441.91,198.63Z"/>
    <path class="cls-6"
          d="M805.38,158.59c0-24.64.46-49.29-.11-73.92-.82-34.91,17.57-52,48.43-58.51,9-1.9,18.09-2.41,27.24-2.69,3.32-.1,4.25,1,4.14,4.27-.23,7.48-.25,15,0,22.47.12,3.47-.93,4.59-4.4,4.55-9-.08-17.94.71-26.59,3.39C841.6,62,835.64,70.88,836.49,83.67c.2,3.08,2.07,2.35,3.77,2.35,13.33,0,26.66.21,40-.07,4.13-.09,5,1.27,4.85,5-.28,7-.34,14,0,21,.21,4.06-.82,5.4-5.08,5.31-12.82-.29-25.65,0-38.48-.19-3.87-.07-5,.91-5,5,.16,38.79,0,77.59.2,116.38,0,4.95-.9,7.08-6.42,6.62a146.39,146.39,0,0,0-20,0c-4,.21-5-1.13-5-5,.15-27.14.08-54.28.08-81.42Z"/>
    <path class="cls-1"
          d="M60.25,156.59c.46,10.37-.86,23,.65,35.64,1,8.11,5.47,13.67,13.06,16.81,9.57,4,19.61,5.06,29.82,4.83,3.87-.09,5.34,1,5.18,5-.29,7.31-.08,14.64-.1,22,0,2.07,0,4.13-3,4-18.44-.53-36.61-2.41-52.8-12.32-15.12-9.27-22.78-23.34-22.89-40.75-.34-54.6-.11-109.19-.21-163.79,0-3.36,1.15-4.27,4.3-4.19,7,.17,14,.24,21,0,3.81-.14,5.15.89,5.1,5-.23,17.31,0,34.62-.19,51.93-.06,4.2.75,5.74,5.4,5.61,12.81-.37,25.65,0,38.47-.16,3.59,0,5.07,1,4.93,4.8-.27,7-.32,14,0,21,.19,4.32-1.52,5.26-5.52,5.19-12.82-.22-25.65,0-38.47-.16-3.8-.07-4.85,1.22-4.78,4.88C60.38,132.68,60.25,143.51,60.25,156.59Z"/>
    <path class="cls-7"
          d="M713.21,109.05c0-26.63.08-53.25-.09-79.87,0-4.1,1-5.54,5.24-5.34,7.14.32,14.32.19,21.47,0,3-.07,4.18.81,4.06,3.93-.21,5.32-.06,10.65,0,16q.07,72.14.2,144.26c0,11.36,5.76,18.54,16.74,22a87.35,87.35,0,0,0,27.56,3.81c3.46-.05,4.65,1,4.54,4.49-.24,7.65-.12,15.31-.07,23,0,2.07-.22,3.6-2.89,3.49-20.93-.86-41.6-2.64-59-16.28-12.83-10.08-17.45-24-17.64-39.54C713,162.3,713.21,135.67,713.21,109.05Z"/>
    <path class="cls-5"
          d="M128.25,189.44c0-15.14,0-30.28,0-45.42,0-15.56,4.14-29.63,16-40.41,9.94-9,22.32-13,35.21-15.35A151.09,151.09,0,0,1,202.78,86c3.16-.07,4.49.79,4.4,4.19-.2,7.65-.18,15.31,0,23,.08,3.18-1.2,4-4.13,3.91-9.53-.23-18.93.71-28,3.87-11.16,3.9-16,10.6-16,22.5,0,31.94-.1,63.89.09,95.83,0,4.4-1.12,5.8-5.56,5.56-7-.37-14-.28-21,0-3.5.13-4.51-.93-4.47-4.44C128.35,223.39,128.25,206.42,128.25,189.44Z"/>
    <path class="cls-6"
          d="M1227.32,164.92c0-24.62.11-49.24-.1-73.86,0-4.27,1.27-5.31,5.32-5.13,7.31.32,14.65.22,22,0,2.86-.08,3.63.81,3.62,3.63q-.11,75.85,0,151.72c0,2.83-.85,3.73-3.69,3.66-7.49-.17-15-.31-22.47,0-3.87.18-4.74-1.11-4.72-4.73.13-23.12.06-46.24.06-69.37Z"/>
    <path class="cls-8"
          d="M1242.8,54.23c-4,0-8-.13-12,.05-2.56.11-3.57-.73-3.54-3.37.11-8.14.07-16.29,0-24.44,0-2.12.81-3,2.93-3,8.32,0,16.64,0,25,0,2,0,3,.76,2.93,2.95-.09,8.32-.13,16.63,0,25,0,2.67-1.23,2.94-3.36,2.89-4-.1-8,0-12,0Z"/>
</svg>