<?xml version="1.0" standalone="no"?>
<!DOCTYPE svg PUBLIC "-//W3C//DTD SVG 20010904//EN"
 "http://www.w3.org/TR/2001/REC-SVG-20010904/DTD/svg10.dtd">
<svg version="1.0" xmlns="http://www.w3.org/2000/svg"
 width="512.000000pt" height="512.000000pt" viewBox="0 0 512.000000 512.000000"
 preserveAspectRatio="xMidYMid meet">
<metadata>
Created by potrace 1.14, written by Peter Selinger 2001-2017
</metadata>
<g transform="translate(0.000000,512.000000) scale(0.100000,-0.100000)"
fill="#000000" stroke="none">
<path d="M3599 5094 c-52 -56 -243 -154 -331 -171 -54 -10 -65 -20 -77 -70
-23 -91 -72 -129 -261 -205 -47 -19 -94 -39 -105 -43 -11 -5 -22 -9 -25 -10
-20 -7 -69 -27 -87 -36 -11 -6 -26 -8 -32 -4 -6 3 -10 2 -9 -3 2 -5 -12 -21
-29 -36 -18 -15 -42 -45 -55 -67 -12 -21 -26 -39 -30 -39 -5 0 -7 -4 -3 -9 5
-10 -39 -67 -80 -104 -22 -20 -90 -57 -103 -57 -7 0 -8 24 -3 49 1 2 8 -3 18
-10 13 -11 17 -11 20 -1 3 6 9 10 14 7 5 -4 19 4 31 16 15 14 17 20 7 16 -9
-3 -22 -2 -29 3 -10 6 -7 14 11 32 14 14 30 23 36 21 17 -6 28 18 13 27 -21
13 13 40 48 40 24 0 31 5 34 25 3 14 1 28 -4 31 -4 3 -6 9 -3 14 3 5 -3 16
-12 26 -17 17 -17 18 0 11 10 -4 21 -7 23 -7 2 0 4 -11 4 -24 0 -14 5 -28 10
-31 9 -6 14 8 11 28 -1 5 3 6 9 2 5 -3 10 1 10 9 0 9 8 16 17 16 9 0 14 3 10
6 -12 12 22 34 53 34 18 0 29 4 25 10 -3 6 1 10 10 10 11 0 15 5 11 15 -3 8 0
15 6 15 6 0 9 3 5 6 -3 4 3 14 15 24 13 10 18 22 14 29 -6 9 -12 9 -25 -3 -27
-25 -87 -46 -129 -46 -54 0 -96 16 -174 68 l-68 45 -74 -6 c-104 -8 -153 -33
-254 -130 -48 -46 -105 -95 -127 -109 -60 -38 -169 -78 -210 -78 -47 0 -69 12
-127 68 -47 45 -48 45 -86 34 -22 -7 -100 -12 -176 -12 -125 0 -143 -2 -223
-30 -96 -33 -199 -40 -256 -17 -18 8 -77 46 -132 84 -209 147 -246 151 -368
35 -79 -75 -105 -92 -139 -92 -37 0 -109 34 -139 66 l-23 24 -28 -27 -28 -27
0 -783 0 -784 53 7 c28 4 59 10 67 14 8 4 33 11 55 14 22 4 57 18 77 32 21 13
47 24 58 24 11 0 20 4 20 8 0 4 29 27 65 50 36 24 65 47 65 53 0 5 6 9 13 9 8
0 27 16 43 35 16 19 34 35 40 35 6 0 17 7 24 15 24 28 30 1 14 -65 -8 -37 -15
-112 -15 -178 0 -183 38 -265 201 -437 77 -81 107 -130 149 -240 48 -125 62
-208 59 -363 -5 -320 -4 -323 101 -454 108 -135 228 -198 396 -207 l99 -6 8
-39 c6 -26 23 -53 53 -82 42 -42 90 -126 77 -138 -3 -3 -53 -6 -111 -6 -58 0
-113 -5 -121 -11 -12 -8 -10 -9 8 -4 13 4 22 2 22 -4 0 -6 -9 -11 -20 -11 -11
0 -20 -4 -20 -10 0 -5 9 -10 20 -10 13 0 20 -7 20 -20 0 -13 -7 -20 -20 -20
-13 0 -20 -7 -20 -20 0 -13 -7 -20 -20 -20 -13 0 -20 7 -20 20 0 18 -7 20 -59
20 -50 0 -59 -3 -64 -20 -7 -26 -27 -26 -34 0 -5 17 -14 20 -64 20 l-59 0 0
40 0 40 -120 0 -120 0 0 -40 c0 -33 -3 -40 -20 -40 -17 0 -20 7 -20 40 l0 40
-40 0 -40 0 0 40 0 40 -40 0 c-22 0 -40 5 -40 10 0 6 -18 10 -40 10 -38 0 -40
2 -40 30 0 28 -2 30 -40 30 l-40 0 0 40 0 40 -40 0 -40 0 0 40 0 40 -120 0
-120 0 0 40 0 40 -40 0 -40 0 0 70 0 70 -40 0 c-22 0 -40 5 -40 10 0 6 -18 10
-40 10 l-40 0 0 -800 0 -800 2560 0 2560 0 0 640 c0 633 0 640 -20 640 -11 0
-20 -4 -20 -10 0 -5 -9 -10 -20 -10 -16 0 -20 -7 -20 -30 0 -28 -2 -30 -40
-30 l-40 0 0 -60 c0 -33 -4 -60 -10 -60 -5 0 -10 -9 -10 -20 0 -19 -7 -20
-150 -20 l-150 0 0 -40 0 -40 -80 0 c-47 0 -80 4 -80 10 0 6 -18 10 -40 10
-22 0 -40 5 -40 10 0 6 -13 10 -30 10 -23 0 -30 4 -30 20 0 11 -4 20 -10 20
-5 0 -10 9 -10 20 0 11 5 20 10 20 6 0 10 9 10 20 0 11 -4 20 -10 20 -5 0 -10
-9 -10 -20 0 -11 -4 -20 -10 -20 -13 0 -13 56 1 81 9 18 8 19 -9 10 -36 -19
-178 -179 -207 -232 -16 -30 -37 -60 -48 -68 -18 -13 -19 -22 -13 -126 l7
-113 -38 -7 c-24 -4 -39 -3 -41 4 -5 14 -82 15 -82 1 0 -5 -9 -10 -20 -10 -11
0 -20 -4 -20 -10 0 -6 -33 -10 -80 -10 l-80 0 0 79 c0 54 -4 81 -12 85 -9 3
-7 10 8 23 11 10 20 23 21 28 0 6 10 15 22 21 12 6 21 15 19 20 -2 5 7 13 20
19 12 5 22 15 22 21 0 7 9 14 20 17 11 3 20 12 20 21 0 8 21 28 48 43 26 15
53 33 60 40 7 7 17 13 21 13 4 0 18 9 31 20 12 11 27 17 31 14 5 -3 9 4 9 15
0 12 5 21 11 21 5 0 8 4 5 9 -3 5 13 25 35 45 35 30 38 36 21 36 -12 0 -45
-11 -74 -24 -29 -13 -107 -47 -173 -76 -116 -50 -199 -93 -277 -146 l-38 -24
0 82 c1 105 12 153 56 242 68 134 145 202 316 279 148 67 208 105 279 176 88
90 365 461 400 536 32 68 54 163 64 277 4 45 11 75 17 72 5 -3 7 -25 4 -48 -4
-29 -3 -35 3 -21 5 11 10 16 10 11 1 -5 7 -3 15 3 11 9 16 5 26 -19 7 -16 16
-30 20 -30 5 0 15 -3 24 -6 14 -5 16 6 16 84 0 114 -9 160 -61 307 -34 95 -59
143 -117 230 -77 114 -110 181 -88 183 148 11 192 16 251 29 39 8 88 18 110
22 22 4 65 19 95 33 30 14 66 29 80 33 14 4 35 17 48 28 l22 20 0 833 0 832
-26 6 c-47 12 -816 4 -854 -9 -20 -7 -47 -9 -62 -4 -15 4 -29 4 -32 1 -3 -3
-6 0 -6 7 0 9 -64 11 -259 11 l-259 -1 -23 -25z m527 -29 c-11 -8 -27 -14 -35
-14 -13 1 -12 2 2 6 9 2 17 9 17 14 0 5 8 9 18 9 15 -1 15 -2 -2 -15z m-73
-45 c3 -11 -2 -25 -11 -32 -13 -11 -14 -11 -7 2 5 8 8 23 7 33 -4 23 4 22 11
-3z m-130 -117 c-7 -2 -19 -2 -25 0 -7 3 -2 5 12 5 14 0 19 -2 13 -5z m-76
-39 c-3 -3 -12 -4 -19 -1 -8 3 -5 6 6 6 11 1 17 -2 13 -5z m-1737 -634 c-8 -5
-28 -9 -45 -9 -26 0 -27 2 -10 9 11 5 31 9 45 9 20 1 22 -1 10 -9z m110 0 c0
-5 -4 -10 -9 -10 -6 0 -13 5 -16 10 -3 6 1 10 9 10 9 0 16 -4 16 -10z m115 0
c-7 -12 -95 -14 -95 -2 0 4 23 8 50 9 31 1 48 -2 45 -7z m-495 -124 c0 -2 -7
-7 -16 -10 -8 -3 -12 -2 -9 4 6 10 25 14 25 6z m545 -17 c-25 -5 -9 -6 45 -2
139 9 249 3 355 -18 575 -116 1033 -582 1168 -1189 25 -112 29 -366 9 -490
-57 -347 -203 -635 -441 -870 -145 -144 -306 -245 -512 -325 -52 -20 -106 -40
-120 -46 -14 -5 -33 -22 -42 -37 -28 -46 -249 -267 -301 -300 -97 -63 -148
-77 -281 -77 -118 0 -121 1 -198 37 -173 83 -296 274 -297 461 l0 57 -45 0
c-57 0 -64 15 -36 80 11 27 21 53 21 59 0 7 -31 11 -81 11 l-82 0 4 417 4 417
-40 8 c-22 4 -110 22 -195 41 l-154 34 -14 49 c-23 83 -27 302 -8 413 40 225
63 300 140 456 167 336 320 503 610 664 117 64 260 122 313 124 18 1 33 5 33
10 0 4 10 7 23 7 18 0 19 -2 7 -11 -12 -9 -12 -10 3 -5 10 3 31 6 45 6 20 0
23 3 13 9 -17 11 7 19 59 18 l35 0 -40 -8z m-635 -30 c0 -14 -17 -10 -23 5 -4
10 -1 13 9 9 7 -3 14 -9 14 -14z m40 17 c0 -2 -7 -7 -16 -10 -8 -3 -12 -2 -9
4 6 10 25 14 25 6z m-137 -63 c-7 -2 -19 -2 -25 0 -7 3 -2 5 12 5 14 0 19 -2
13 -5z m-83 -23 c0 -5 -5 -10 -11 -10 -5 0 -7 5 -4 10 3 6 8 10 11 10 2 0 4
-4 4 -10z m-35 -10 c3 -5 1 -10 -4 -10 -6 0 -11 5 -11 10 0 6 2 10 4 10 3 0 8
-4 11 -10z m2696 -2913 c-10 -9 -11 -8 -5 6 3 10 9 15 12 12 3 -3 0 -11 -7
-18z m-814 -639 c-2 -13 -4 -5 -4 17 -1 22 1 32 4 23 2 -10 2 -28 0 -40z m59
16 c-3 -9 -6 -20 -6 -25 0 -21 -16 -7 -18 16 -1 17 3 25 14 25 11 0 14 -5 10
-16z m-39 -46 c-3 -8 -6 -5 -6 6 -1 11 2 17 5 13 3 -3 4 -12 1 -19z m0 -90
c-3 -8 -6 -5 -6 6 -1 11 2 17 5 13 3 -3 4 -12 1 -19z"/>
<path d="M2391 3254 c-119 -32 -270 -143 -327 -239 -63 -108 -85 -244 -60
-365 38 -178 124 -271 291 -311 28 -7 51 -13 53 -14 4 -4 -55 -149 -83 -204
-23 -46 -23 -50 -7 -64 32 -29 126 -66 197 -77 218 -35 483 81 608 267 175
259 128 624 -110 859 -62 61 -181 124 -278 149 -74 19 -213 18 -284 -1z"/>
<path d="M1305 2404 c35 -14 50 -17 90 -23 6 -1 3 -6 -5 -11 -12 -8 -10 -10 8
-10 13 0 20 4 17 10 -4 6 5 10 20 10 16 0 24 -4 20 -11 -4 -6 -1 -9 6 -8 8 2
42 -3 76 -10 49 -11 62 -18 66 -35 3 -11 5 -153 6 -315 0 -162 3 -297 6 -299
3 -3 5 143 5 325 l0 331 -42 4 c-24 3 -96 17 -161 31 -132 30 -172 34 -112 11z"/>
<path d="M1606 1664 c4 -16 13 -47 21 -69 8 -22 16 -50 18 -63 7 -44 61 -103
79 -85 9 9 46 -28 39 -40 -3 -6 -1 -7 6 -3 7 5 -5 26 -39 64 -54 61 -100 142
-100 178 0 12 -7 27 -16 35 -13 11 -14 9 -8 -17z"/>
<path d="M2060 1193 c0 -3 20 -30 43 -61 24 -31 61 -82 81 -113 30 -45 44 -58
69 -62 47 -7 131 9 191 36 52 24 126 81 126 98 0 5 -26 9 -57 9 -75 1 -288 41
-380 73 -40 13 -73 22 -73 20z"/>
<path d="M2478 4343 c7 -3 16 -2 19 1 4 3 -2 6 -13 5 -11 0 -14 -3 -6 -6z"/>
<path d="M190 1909 c0 -5 5 -7 10 -4 6 3 10 8 10 11 0 2 -4 4 -10 4 -5 0 -10
-5 -10 -11z"/>
<path d="M84 1894 c-18 -14 -18 -15 6 -8 31 8 50 24 29 24 -8 0 -24 -7 -35
-16z"/>
<path d="M468 1893 c7 -3 16 -2 19 1 4 3 -2 6 -13 5 -11 0 -14 -3 -6 -6z"/>
<path d="M637 1783 c-4 -6 0 -19 9 -27 18 -19 31 -21 17 -3 -6 6 -12 19 -15
27 -3 9 -7 10 -11 3z"/>
<path d="M801 1404 c0 -11 3 -14 6 -6 3 7 2 16 -1 19 -3 4 -6 -2 -5 -13z"/>
<path d="M870 1306 c0 -9 5 -16 10 -16 6 0 10 4 10 9 0 6 -4 13 -10 16 -5 3
-10 -1 -10 -9z"/>
<path d="M4349 1213 c-13 -16 -12 -17 4 -4 16 13 21 21 13 21 -2 0 -10 -8 -17
-17z"/>
<path d="M938 1183 c7 -3 16 -2 19 1 4 3 -2 6 -13 5 -11 0 -14 -3 -6 -6z"/>
<path d="M1005 1180 c3 -5 8 -10 11 -10 2 0 4 5 4 10 0 6 -5 10 -11 10 -5 0
-7 -4 -4 -10z"/>
<path d="M1146 1095 c4 -8 9 -15 13 -15 4 0 8 7 8 15 0 8 -6 15 -13 15 -8 0
-11 -6 -8 -15z"/>
</g>
</svg>
